HIERARCHY
ROOT Hips
{
	OFFSET 0.00000 0.00000 0.00000
	CHANNELS 6 Xposition Yposition Zposition Zrotation Yrotation Xrotation 
	JOINT LHipJoint
	{
		OFFSET 0 0 0
		CHANNELS 3 Zrotation Yrotation Xrotation
		JOINT LeftHip
		{
			OFFSET 1.62964 -1.40469 0.78906
			CHANNELS 3 Zrotation Yrotation Xrotation
			JOINT LeftKnee
			{
				OFFSET 2.29640 -6.30932 0.00000
				CHANNELS 3 Zrotation Yrotation Xrotation
				JOINT LeftAnkle
				{
					OFFSET 2.29451 -6.30412 0.00000
					CHANNELS 3 Zrotation Yrotation Xrotation
					JOINT LeftToe
					{
						OFFSET 0.03611 -0.09921 1.56387
						CHANNELS 3 Zrotation Yrotation Xrotation
						End Site
						{
							OFFSET 0.00000 -0.00000 0.80291
						}
					}
				}
			}
		}
	}
	JOINT RHipJoint
	{
		OFFSET 0 0 0
		CHANNELS 3 Zrotation Yrotation Xrotation
		JOINT RightHip
		{
			OFFSET -1.73712 -1.40469 0.78906
			CHANNELS 3 Zrotation Yrotation Xrotation
			JOINT RightKnee
			{
				OFFSET -2.28137 -6.26801 0.00000
				CHANNELS 3 Zrotation Yrotation Xrotation
				JOINT RightAnkle
				{
					OFFSET -2.28681 -6.28298 0.00000
					CHANNELS 3 Zrotation Yrotation Xrotation
					JOINT RightToe
					{
						OFFSET -0.15927 -0.43759 1.61103
						CHANNELS 3 Zrotation Yrotation Xrotation
						End Site
						{
							OFFSET -0.00000 -0.00000 0.84630
						}
					}
				}
			}
		}
	}
	JOINT lowerback
	{
		OFFSET 0 0 0
		CHANNELS 3 Zrotation Yrotation Xrotation
		JOINT Chest
		{
			OFFSET -0.04227 2.04338 -0.00225
			CHANNELS 3 Zrotation Yrotation Xrotation
			JOINT Chest2
			{
				OFFSET -0.02148 2.04482 -0.04273
				CHANNELS 3 Zrotation Yrotation Xrotation
				JOINT lowerneck
				{
					OFFSET 0 0 0
					CHANNELS 3 Zrotation Yrotation Xrotation
					JOINT Neck
					{
						OFFSET 0.09180 1.44629 0.19359
						CHANNELS 3 Zrotation Yrotation Xrotation
						JOINT Head
						{
							OFFSET 0.00887 1.40645 0.14750
							CHANNELS 3 Zrotation Yrotation Xrotation
							End Site
							{
								OFFSET -0.00669 1.50671 0.03707
							}
						}
					}
				}
				JOINT LeftCollar
				{
					OFFSET 0 0 0
					CHANNELS 3 Zrotation Yrotation Xrotation
					JOINT LeftShoulder
					{
						OFFSET 2.17674 1.86763 -0.06520
CHANNELS 3 Zrotation Xrotation Yrotation
						JOINT LeftElbow
						{
OFFSET 0 -4.657760 0.000000
CHANNELS 3 Zrotation Xrotation Yrotation
							JOINT LeftWrist
							{
OFFSET 0 -3.555390 0.000000
CHANNELS 3 Zrotation Xrotation Yrotation
								JOINT lhand
								{
									OFFSET 0 0 0
CHANNELS 3 Zrotation Xrotation Yrotation
									JOINT LFingers
									{
OFFSET 0 -0.707260 0.000000
CHANNELS 3 Zrotation Xrotation Yrotation
										End Site
										{
OFFSET 0 -0.570220 0.000000
										}
									}
								}
								JOINT LThumb
								{
OFFSET 0 0.000000 0.000000
CHANNELS 3 Zrotation Xrotation Yrotation
									End Site
									{
OFFSET 0 -0.578920 0.578920
									}
								}
							}
						}
					}
				}
				JOINT RightCollar
				{
					OFFSET 0 0 0
					CHANNELS 3 Zrotation Yrotation Xrotation
					JOINT RightShoulder
					{
						OFFSET -2.80694 1.55459 -0.32496
CHANNELS 3 Zrotation Xrotation Yrotation
						JOINT RightElbow
						{
OFFSET 0 -4.719250 -0.000000
CHANNELS 3 Zrotation Xrotation Yrotation
							JOINT RightWrist
							{
OFFSET 0 -3.569900 0.000000
CHANNELS 3 Zrotation Xrotation Yrotation
								JOINT rhand
								{
									OFFSET 0 0 0
CHANNELS 3 Zrotation Xrotation Yrotation
									JOINT RFingers
									{
OFFSET 0 -0.507760 0.000000
CHANNELS 3 Zrotation Xrotation Yrotation
										End Site
										{
OFFSET 0 -0.409370 0.000000
										}
									}
								}
								JOINT RThumb
								{
OFFSET 0 0.000000 0.000000
CHANNELS 3 Zrotation Xrotation Yrotation
									End Site
									{
OFFSET 0 -0.415620 0.415620
									}
								}
							}
						}
					}
				}
			}
		}
	}
}
MOTION
Frames: 6
Frame Time: 0.008333333333333333
9.313221 14.606802 19.775512 178.222484 -12.535935 -149.738795 0.000000 0.000000 0.000000 -8.297101 -31.030114 -53.003439 11.034310 17.951691 62.892774 -0.221147 -21.045356 -13.014925 1.913874 8.678831 24.799241 0.000000 0.000000 0.000000 16.988795 13.363154 -52.547012 -10.718828 -17.794622 61.864909 -4.373734 -0.072404 -39.804692 -3.809804 11.902641 -35.388825 -5.662382 -0.480480 -15.639366 -0.782515 0.193709 -1.304009 2.402051 -0.165574 7.364537 -3.037201 4.950068 -5.772041 14.852767 5.477940 4.732538 5.135620 2.882524 1.835396 0.000000 0.000000 0.000000 6.892530 -2.217054 -32.849522 14.504507 -23.451029 3.026196 24.549233 -3.001738 11.029240 0.000000 0.000000 0.000000 -7.125000 0.000000 0.000000 -1.792758 17.888745 -1.155696 0.000000 0.000000 0.000000 -1.127865 0.846678 17.437816 -14.301497 -23.163759 -2.945862 -18.038522 13.129151 48.630614 0.000000 0.000000 0.000000 7.125000 0.000000 0.000000 46.844625 76.175093 -35.831796
9.315248 14.610854 19.744288 178.180828 -13.495764 -149.775696 0.000000 0.000000 0.000000 -8.355476 -31.345643 -52.551225 10.886746 17.879014 62.413006 -0.262724 -21.103524 -12.707396 2.146941 9.162409 26.307063 0.000000 0.000000 0.000000 17.264446 13.081746 -52.142041 -10.631483 -17.749914 61.578816 -4.424730 -0.399001 -40.131675 -3.795016 11.882030 -35.316619 -5.595896 -0.402800 -16.091915 -0.793507 0.312046 -1.307819 2.380025 -0.114397 7.602259 -3.424435 4.876728 -5.749883 15.017668 5.420686 4.732327 5.248900 2.858020 1.820220 0.000000 0.000000 0.000000 7.225951 -2.035667 -33.946343 14.820807 -23.895155 3.153446 24.716010 -3.347062 11.218496 0.000000 0.000000 0.000000 -7.125000 0.000000 0.000000 -1.685588 17.666199 -1.095035 0.000000 0.000000 0.000000 -1.349318 1.629425 18.310629 -14.644162 -23.647239 -3.082322 -17.651786 12.367803 50.016575 0.000000 0.000000 0.000000 7.125000 0.000000 0.000000 52.154914 76.760428 -40.831618
9.318167 14.631169 19.712760 178.150658 -14.390374 -149.734856 0.000000 0.000000 0.000000 -8.417173 -31.536646 -52.104313 10.689516 17.779290 61.768420 -0.284088 -21.061746 -12.488644 2.242582 9.353943 26.909019 0.000000 0.000000 0.000000 17.515145 12.869149 -51.694591 -10.486670 -17.674072 61.102201 -4.489664 -0.348066 -40.414810 -3.557778 11.542815 -34.138926 -5.552367 -0.276344 -16.574931 -0.822648 0.493391 -1.380215 2.366310 -0.033101 7.776910 -3.836724 4.775792 -5.701091 15.225016 5.328493 4.696099 5.377675 2.813856 1.791832 0.000000 0.000000 0.000000 7.606125 -1.757359 -35.108168 15.236623 -24.473787 3.323938 24.787135 -3.612080 11.267057 0.000000 0.000000 0.000000 -7.125000 0.000000 0.000000 -1.638364 17.606129 -1.066459 0.000000 0.000000 0.000000 -1.585990 2.607712 19.157321 -15.114666 -24.304342 -3.273749 -17.119727 11.572873 51.414064 0.000000 0.000000 0.000000 7.125000 0.000000 0.000000 58.052785 77.168098 -46.361512
9.324677 14.675003 19.672943 177.998544 -15.485063 -149.872456 0.000000 0.000000 0.000000 -8.714277 -31.786704 -51.140668 10.399997 17.627563 60.815500 -0.299067 -20.915834 -12.233742 2.184367 9.239429 26.547645 0.000000 0.000000 0.000000 17.877914 12.327310 -50.753040 -10.179559 -17.508114 60.084823 -4.518218 -0.364106 -40.549789 -3.222439 11.042924 -32.428961 -5.667584 -0.253220 -16.817953 -0.799139 0.557826 -1.392341 2.472992 -0.010240 7.891732 -4.345073 4.674683 -5.709232 15.457395 5.244329 4.667842 5.532808 2.776383 1.771471 0.000000 0.000000 0.000000 7.962261 -1.516765 -36.334657 15.681501 -25.086024 3.510411 24.922183 -3.911938 11.303964 0.000000 0.000000 0.000000 -7.125000 0.000000 0.000000 -1.545791 17.552295 -1.007867 0.000000 0.000000 0.000000 -1.947036 3.660644 20.102599 -15.628665 -25.013352 -3.488160 -16.836359 10.820524 52.150232 0.000000 0.000000 0.000000 7.125000 0.000000 0.000000 61.237715 77.348075 -49.357458
9.328514 14.739059 19.627175 177.872245 -16.646888 -149.988377 0.000000 0.000000 0.000000 -8.998663 -32.058074 -50.006957 10.005245 17.410868 59.503282 -0.316707 -20.568592 -11.777529 2.155839 9.183261 26.370417 0.000000 0.000000 0.000000 18.346101 11.758161 -49.636772 -9.757394 -17.269034 58.671536 -4.462068 -0.933774 -40.462747 -3.073030 10.812213 -31.649356 -5.756444 -0.232355 -17.068220 -0.769788 0.612951 -1.421328 2.569608 0.009046 7.992697 -4.893174 4.576121 -5.757899 15.696835 5.164240 4.673670 5.699447 2.743918 1.766803 0.000000 0.000000 0.000000 8.330531 -1.310099 -37.552525 16.113635 -25.673674 3.695546 25.080201 -4.193287 11.483522 0.000000 0.000000 0.000000 -7.125000 0.000000 0.000000 -1.445530 17.339972 -0.949158 0.000000 0.000000 0.000000 -2.281486 4.788152 20.941275 -16.162336 -25.738800 -3.717040 -16.982020 10.398561 51.867661 0.000000 0.000000 0.000000 7.125000 0.000000 0.000000 59.967367 77.303429 -48.176001
9.326355 14.824121 19.582028 177.801594 -17.833115 -149.973202 0.000000 0.000000 0.000000 -9.149315 -32.428484 -48.943301 9.542307 17.141902 57.943991 -0.338946 -20.018190 -11.085679 2.230283 9.329194 26.831301 0.000000 0.000000 0.000000 18.822931 11.247943 -48.629185 -9.253392 -16.964658 56.957479 -4.252739 -2.288200 -39.931477 -3.263880 11.104680 -32.640346 -5.694651 -0.154222 -17.384648 -0.811254 0.705878 -1.591775 2.513204 0.052752 7.974573 -5.406152 4.482348 -5.645709 15.960524 5.084948 4.650055 5.862978 2.704100 1.727204 0.000000 0.000000 0.000000 8.801483 -0.971719 -38.733335 16.526820 -26.228958 3.876310 25.225944 -4.379582 11.812363 0.000000 0.000000 0.000000 -7.125000 0.000000 0.000000 -1.363466 16.964855 -0.906228 0.000000 0.000000 0.000000 -2.389133 6.191925 21.561711 -16.770612 -26.552323 -3.985377 -17.680579 10.767952 51.686976 0.000000 0.000000 0.000000 7.125000 0.000000 0.000000 58.855616 77.518662 -47.397174
